<svg width="53" height="26" viewBox="0 0 53 26" fill="none" xmlns="http://www.w3.org/2000/svg">
<path d="M8.40625 8.53906L9.55469 2.46875H11.3066L9.41406 11H7.64453L6.25586 5.29297L4.86719 11H3.09766L1.20508 2.46875H2.95703L4.11133 8.52734L5.51758 2.46875H7.00586L8.40625 8.53906ZM15.625 11C15.5469 10.8477 15.4902 10.6582 15.4551 10.4316C15.0449 10.8887 14.5117 11.1172 13.8555 11.1172C13.2344 11.1172 12.7188 10.9375 12.3086 10.5781C11.9023 10.2188 11.6992 9.76562 11.6992 9.21875C11.6992 8.54688 11.9473 8.03125 12.4434 7.67188C12.9434 7.3125 13.6641 7.13086 14.6055 7.12695H15.3848V6.76367C15.3848 6.4707 15.3086 6.23633 15.1562 6.06055C15.0078 5.88477 14.7715 5.79688 14.4473 5.79688C14.1621 5.79688 13.9375 5.86523 13.7734 6.00195C13.6133 6.13867 13.5332 6.32617 13.5332 6.56445H11.8398C11.8398 6.19727 11.9531 5.85742 12.1797 5.54492C12.4062 5.23242 12.7266 4.98828 13.1406 4.8125C13.5547 4.63281 14.0195 4.54297 14.5352 4.54297C15.3164 4.54297 15.9355 4.74023 16.3926 5.13477C16.8535 5.52539 17.084 6.07617 17.084 6.78711V9.53516C17.0879 10.1367 17.1719 10.5918 17.3359 10.9004V11H15.625ZM14.2246 9.82227C14.4746 9.82227 14.7051 9.76758 14.916 9.6582C15.127 9.54492 15.2832 9.39453 15.3848 9.20703V8.11719H14.752C13.9043 8.11719 13.4531 8.41016 13.3984 8.99609L13.3926 9.0957C13.3926 9.30664 13.4668 9.48047 13.6152 9.61719C13.7637 9.75391 13.9668 9.82227 14.2246 9.82227ZM19.9434 4.66016L19.9961 5.39258C20.4492 4.82617 21.0566 4.54297 21.8184 4.54297C22.4902 4.54297 22.9902 4.74023 23.3184 5.13477C23.6465 5.5293 23.8145 6.11914 23.8223 6.9043V11H22.1289V6.94531C22.1289 6.58594 22.0508 6.32617 21.8945 6.16602C21.7383 6.00195 21.4785 5.91992 21.1152 5.91992C20.6387 5.91992 20.2812 6.12305 20.043 6.5293V11H18.3496V4.66016H19.9434ZM27.1387 3.10156V4.66016H28.2227V5.90234H27.1387V9.06641C27.1387 9.30078 27.1836 9.46875 27.2734 9.57031C27.3633 9.67188 27.5352 9.72266 27.7891 9.72266C27.9766 9.72266 28.1426 9.70898 28.2871 9.68164V10.9648C27.9551 11.0664 27.6133 11.1172 27.2617 11.1172C26.0742 11.1172 25.4688 10.5176 25.4453 9.31836V5.90234H24.5195V4.66016H25.4453V3.10156H27.1387Z" fill="#2593FC"/>
<path d="M7.25391 7.81836L8.23242 2.46875H10.2715L8.46094 11H6.32812L5.18555 6.13672L4.06641 11H1.93945L0.123047 2.46875H2.16797L3.14648 7.81836L4.31836 2.46875H6.06445L7.25391 7.81836ZM14.3555 11C14.2852 10.8711 14.2227 10.6816 14.168 10.4316C13.8047 10.8887 13.2969 11.1172 12.6445 11.1172C12.0469 11.1172 11.5391 10.9375 11.1211 10.5781C10.7031 10.2148 10.4941 9.75977 10.4941 9.21289C10.4941 8.52539 10.748 8.00586 11.2559 7.6543C11.7637 7.30273 12.502 7.12695 13.4707 7.12695H14.0801V6.79297C14.0801 6.21094 13.8281 5.91992 13.3242 5.91992C12.8555 5.91992 12.6211 6.15039 12.6211 6.61133H10.6465C10.6465 5.99805 10.9062 5.5 11.4258 5.11719C11.9492 4.73438 12.6152 4.54297 13.4238 4.54297C14.2324 4.54297 14.8711 4.74023 15.3398 5.13477C15.8086 5.5293 16.0488 6.07031 16.0605 6.75781V9.56445C16.0684 10.1465 16.1582 10.5918 16.3301 10.9004V11H14.3555ZM13.1191 9.71094C13.3652 9.71094 13.5684 9.6582 13.7285 9.55273C13.8926 9.44727 14.0098 9.32812 14.0801 9.19531V8.18164H13.5059C12.8184 8.18164 12.4746 8.49023 12.4746 9.10742C12.4746 9.28711 12.5352 9.43359 12.6562 9.54688C12.7773 9.65625 12.9316 9.71094 13.1191 9.71094ZM18.9727 4.66016L19.0371 5.4043C19.4746 4.83008 20.0781 4.54297 20.8477 4.54297C21.5078 4.54297 22 4.74023 22.3242 5.13477C22.6523 5.5293 22.8223 6.12305 22.834 6.91602V11H20.8535V6.99805C20.8535 6.67773 20.7891 6.44336 20.6602 6.29492C20.5312 6.14258 20.2969 6.06641 19.957 6.06641C19.5703 6.06641 19.2832 6.21875 19.0957 6.52344V11H17.1211V4.66016H18.9727ZM26.2324 3.08398V4.66016H27.2754V6.03125H26.2324V8.93164C26.2324 9.16992 26.2754 9.33594 26.3613 9.42969C26.4473 9.52344 26.6172 9.57031 26.8711 9.57031C27.0664 9.57031 27.2305 9.55859 27.3633 9.53516V10.9473C27.0078 11.0605 26.6367 11.1172 26.25 11.1172C25.5703 11.1172 25.0684 10.957 24.7441 10.6367C24.4199 10.3164 24.2578 9.83008 24.2578 9.17773V6.03125H23.4492V4.66016H24.2578V3.08398H26.2324Z" fill="white"/>
<circle cx="14" cy="18" r="4" fill="#2593FC"/>
<path d="M18 18C18 20.2091 16.2091 22 14 22C11.7909 22 10 20.2091 10 18C10 15.7909 11.7909 14 14 14C16.2091 14 18 15.7909 18 18ZM17.2258 18L17.2258 17.9955L16.8054 18.3622L15.7944 17.4187L16.0598 16.0581L16.6131 16.1077C16.2116 15.5558 15.6453 15.1385 14.9887 14.928L15.2089 15.4431L14 16.1129L12.7911 15.4431L13.0113 14.928C12.3559 15.1381 11.789 15.5549 11.3869 16.1077L11.9444 16.0581L12.2056 17.4187L11.1946 18.3622L10.7743 17.9955L10.7742 18C10.7742 18.6938 10.9919 19.3541 11.3947 19.9031L11.519 19.3564L12.8922 19.5249L13.4777 20.7801L12.9954 21.067C13.6438 21.2786 14.3549 21.279 15.0046 21.067L14.5223 20.7801L15.1078 19.5249L16.481 19.3564L16.6053 19.9031C17.0081 19.3541 17.2258 18.6938 17.2258 18ZM13.2242 19.1221L12.742 17.6493L14 16.7376L15.258 17.6493L14.7802 19.1221H13.2242Z" fill="white"/>
<path d="M37.5614 9.44381L37.4545 9.44474L37.3813 9.52269C36.7436 10.202 35.8528 10.6267 34.862 10.6354C32.9085 10.6524 31.3016 9.04208 31.284 7.0233C31.2663 5.00452 32.845 3.3664 34.7984 3.34935L42.391 3.28309C44.3442 3.26605 45.949 4.87618 45.9666 6.89517C45.9843 8.91395 44.4056 10.5521 42.4522 10.5691C41.4636 10.5777 40.5633 10.1686 39.9138 9.50059L39.8393 9.42393L39.7324 9.42486L37.5614 9.44381ZM36.8322 8.00355C37.1328 8.00093 37.3648 7.7496 37.3622 7.45692L37.3537 6.48367C37.3512 6.19099 37.1148 5.94375 36.8143 5.94637L35.8305 5.95496L35.8216 4.93973C35.8191 4.64704 35.5828 4.3998 35.2822 4.40243L34.3331 4.41071C34.0326 4.41333 33.8006 4.66466 33.8032 4.95734L33.812 5.97257L32.8282 5.98116C32.5277 5.98378 32.2957 6.2351 32.2982 6.52779L32.3067 7.50104C32.3093 7.79372 32.5456 8.04096 32.8462 8.03834L33.83 8.02975L33.8388 9.04498C33.8414 9.33767 34.0777 9.5849 34.3783 9.58228L35.3273 9.574C35.6279 9.57137 35.8599 9.32005 35.8573 9.02737L35.8485 8.01213L36.8322 8.00355ZM40.0933 7.91975C40.1001 8.69662 40.7218 9.33226 41.4946 9.32551C42.2673 9.31877 42.8778 8.67238 42.871 7.8955C42.8687 7.63203 42.7957 7.38481 42.6701 7.17337C42.877 7.29548 43.1179 7.3647 43.3757 7.36245C44.1484 7.35571 44.759 6.70932 44.7522 5.93244C44.7454 5.15557 44.1237 4.51993 43.3509 4.52668C42.5782 4.53342 41.9677 5.17981 41.9745 5.95668C41.9768 6.22016 42.0498 6.46738 42.1754 6.67882C41.9685 6.55671 41.7276 6.48749 41.4698 6.48974C40.6971 6.49648 40.0865 7.14287 40.0933 7.91975Z" fill="#2593FC" stroke="white" stroke-width="0.5"/>
<path d="M28.5117 20.9219C28.1953 21.3008 27.748 21.5957 27.1699 21.8066C26.5918 22.0137 25.9512 22.1172 25.248 22.1172C24.5098 22.1172 23.8613 21.957 23.3027 21.6367C22.748 21.3125 22.3184 20.8438 22.0137 20.2305C21.7129 19.6172 21.5586 18.8965 21.5508 18.0684V17.4883C21.5508 16.6367 21.6934 15.9004 21.9785 15.2793C22.2676 14.6543 22.6816 14.1777 23.2207 13.8496C23.7637 13.5176 24.3984 13.3516 25.125 13.3516C26.1367 13.3516 26.9277 13.5938 27.498 14.0781C28.0684 14.5586 28.4062 15.2598 28.5117 16.1816H26.8008C26.7227 15.6934 26.5488 15.3359 26.2793 15.1094C26.0137 14.8828 25.6465 14.7695 25.1777 14.7695C24.5801 14.7695 24.125 14.9941 23.8125 15.4434C23.5 15.8926 23.3418 16.5605 23.3379 17.4473V17.9922C23.3379 18.8867 23.5078 19.5625 23.8477 20.0195C24.1875 20.4766 24.6855 20.7051 25.3418 20.7051C26.002 20.7051 26.4727 20.5645 26.7539 20.2832V18.8125H25.1543V17.5176H28.5117V20.9219ZM33.5039 22C33.4258 21.8477 33.3691 21.6582 33.334 21.4316C32.9238 21.8887 32.3906 22.1172 31.7344 22.1172C31.1133 22.1172 30.5977 21.9375 30.1875 21.5781C29.7812 21.2188 29.5781 20.7656 29.5781 20.2188C29.5781 19.5469 29.8262 19.0312 30.3223 18.6719C30.8223 18.3125 31.543 18.1309 32.4844 18.127H33.2637V17.7637C33.2637 17.4707 33.1875 17.2363 33.0352 17.0605C32.8867 16.8848 32.6504 16.7969 32.3262 16.7969C32.041 16.7969 31.8164 16.8652 31.6523 17.002C31.4922 17.1387 31.4121 17.3262 31.4121 17.5645H29.7188C29.7188 17.1973 29.832 16.8574 30.0586 16.5449C30.2852 16.2324 30.6055 15.9883 31.0195 15.8125C31.4336 15.6328 31.8984 15.543 32.4141 15.543C33.1953 15.543 33.8145 15.7402 34.2715 16.1348C34.7324 16.5254 34.9629 17.0762 34.9629 17.7871V20.5352C34.9668 21.1367 35.0508 21.5918 35.2148 21.9004V22H33.5039ZM32.1035 20.8223C32.3535 20.8223 32.584 20.7676 32.7949 20.6582C33.0059 20.5449 33.1621 20.3945 33.2637 20.207V19.1172H32.6309C31.7832 19.1172 31.332 19.4102 31.2773 19.9961L31.2715 20.0957C31.2715 20.3066 31.3457 20.4805 31.4941 20.6172C31.6426 20.7539 31.8457 20.8223 32.1035 20.8223ZM37.8516 15.6602L37.9043 16.3691C38.3535 15.8184 38.9609 15.543 39.7266 15.543C40.543 15.543 41.1035 15.8652 41.4082 16.5098C41.8535 15.8652 42.4883 15.543 43.3125 15.543C44 15.543 44.5117 15.7441 44.8477 16.1465C45.1836 16.5449 45.3516 17.1465 45.3516 17.9512V22H43.6523V17.957C43.6523 17.5977 43.582 17.3359 43.4414 17.1719C43.3008 17.0039 43.0527 16.9199 42.6973 16.9199C42.1895 16.9199 41.8379 17.1621 41.6426 17.6465L41.6484 22H39.9551V17.9629C39.9551 17.5957 39.8828 17.3301 39.7383 17.166C39.5938 17.002 39.3477 16.9199 39 16.9199C38.5195 16.9199 38.1719 17.1191 37.957 17.5176V22H36.2637V15.6602H37.8516ZM49.5762 22.1172C48.6465 22.1172 47.8887 21.832 47.3027 21.2617C46.7207 20.6914 46.4297 19.9316 46.4297 18.9824V18.8184C46.4297 18.1816 46.5527 17.6133 46.7988 17.1133C47.0449 16.6094 47.3926 16.2227 47.8418 15.9531C48.2949 15.6797 48.8105 15.543 49.3887 15.543C50.2559 15.543 50.9375 15.8164 51.4336 16.3633C51.9336 16.9102 52.1836 17.6855 52.1836 18.6895V19.3809H48.1465C48.2012 19.7949 48.3652 20.127 48.6387 20.377C48.916 20.627 49.2656 20.752 49.6875 20.752C50.3398 20.752 50.8496 20.5156 51.2168 20.043L52.0488 20.9746C51.7949 21.334 51.4512 21.6152 51.0176 21.8184C50.584 22.0176 50.1035 22.1172 49.5762 22.1172ZM49.3828 16.9141C49.0469 16.9141 48.7734 17.0273 48.5625 17.2539C48.3555 17.4805 48.2227 17.8047 48.1641 18.2266H50.5195V18.0918C50.5117 17.7168 50.4102 17.4277 50.2148 17.2246C50.0195 17.0176 49.7422 16.9141 49.3828 16.9141Z" fill="#2593FC"/>
<path d="M27.6289 20.9453C27.3125 21.2969 26.8496 21.5801 26.2402 21.7949C25.6309 22.0098 24.9629 22.1172 24.2363 22.1172C23.1191 22.1172 22.2266 21.7754 21.5586 21.0918C20.8906 20.4082 20.5332 19.457 20.4863 18.2383L20.4805 17.5C20.4805 16.6602 20.6289 15.9277 20.9258 15.3027C21.2227 14.6738 21.6465 14.1914 22.1973 13.8555C22.752 13.5156 23.3926 13.3457 24.1191 13.3457C25.1816 13.3457 26.0059 13.5898 26.5918 14.0781C27.1816 14.5625 27.5254 15.2871 27.623 16.252H25.6426C25.5723 15.7754 25.4199 15.4355 25.1855 15.2324C24.9512 15.0293 24.6191 14.9277 24.1895 14.9277C23.6738 14.9277 23.2754 15.1465 22.9941 15.584C22.7129 16.0215 22.5703 16.6465 22.5664 17.459V17.9746C22.5664 18.8262 22.7109 19.4668 23 19.8965C23.293 20.3223 23.752 20.5352 24.377 20.5352C24.9121 20.5352 25.3105 20.416 25.5723 20.1777V18.8535H24.1426V17.4414H27.6289V20.9453ZM32.3047 22C32.2344 21.8711 32.1719 21.6816 32.1172 21.4316C31.7539 21.8887 31.2461 22.1172 30.5938 22.1172C29.9961 22.1172 29.4883 21.9375 29.0703 21.5781C28.6523 21.2148 28.4434 20.7598 28.4434 20.2129C28.4434 19.5254 28.6973 19.0059 29.2051 18.6543C29.7129 18.3027 30.4512 18.127 31.4199 18.127H32.0293V17.793C32.0293 17.2109 31.7773 16.9199 31.2734 16.9199C30.8047 16.9199 30.5703 17.1504 30.5703 17.6113H28.5957C28.5957 16.998 28.8555 16.5 29.375 16.1172C29.8984 15.7344 30.5645 15.543 31.373 15.543C32.1816 15.543 32.8203 15.7402 33.2891 16.1348C33.7578 16.5293 33.998 17.0703 34.0098 17.7578V20.5645C34.0176 21.1465 34.1074 21.5918 34.2793 21.9004V22H32.3047ZM31.0684 20.7109C31.3145 20.7109 31.5176 20.6582 31.6777 20.5527C31.8418 20.4473 31.959 20.3281 32.0293 20.1953V19.1816H31.4551C30.7676 19.1816 30.4238 19.4902 30.4238 20.1074C30.4238 20.2871 30.4844 20.4336 30.6055 20.5469C30.7266 20.6562 30.8809 20.7109 31.0684 20.7109ZM36.9746 15.6602L37.0391 16.4043C37.4883 15.8301 38.0918 15.543 38.8496 15.543C39.6504 15.543 40.1914 15.8613 40.4727 16.498C40.9023 15.8613 41.5234 15.543 42.3359 15.543C43.6211 15.543 44.2812 16.3203 44.3164 17.875V22H42.3359V17.998C42.3359 17.6738 42.2812 17.4375 42.1719 17.2891C42.0625 17.1406 41.8633 17.0664 41.5742 17.0664C41.1836 17.0664 40.8926 17.2402 40.7012 17.5879L40.707 17.6699V22H38.7266V18.0098C38.7266 17.6777 38.6738 17.4375 38.5684 17.2891C38.4629 17.1406 38.2617 17.0664 37.9648 17.0664C37.5859 17.0664 37.2969 17.2402 37.0977 17.5879V22H35.123V15.6602H36.9746ZM48.5117 22.1172C47.5391 22.1172 46.752 21.8281 46.1504 21.25C45.5488 20.668 45.248 19.9121 45.248 18.9824V18.8184C45.248 18.1699 45.3672 17.5977 45.6055 17.1016C45.8477 16.6055 46.1992 16.2227 46.6602 15.9531C47.1211 15.6797 47.668 15.543 48.3008 15.543C49.1914 15.543 49.8945 15.8203 50.4102 16.375C50.9258 16.9258 51.1836 17.6953 51.1836 18.6836V19.4512H47.2578C47.3281 19.8066 47.4824 20.0859 47.7207 20.2891C47.959 20.4922 48.2676 20.5938 48.6465 20.5938C49.2715 20.5938 49.7598 20.375 50.1113 19.9375L51.0137 21.0039C50.7676 21.3438 50.418 21.6152 49.9648 21.8184C49.5156 22.0176 49.0312 22.1172 48.5117 22.1172ZM48.2891 17.0664C47.7109 17.0664 47.3672 17.4492 47.2578 18.2148H49.25V18.0625C49.2578 17.7461 49.1777 17.502 49.0098 17.3301C48.8418 17.1543 48.6016 17.0664 48.2891 17.0664Z" fill="white"/>
</svg>
